<?xml version="1.0" encoding="UTF-8"?><svg id="Layer_2" xmlns="http://www.w3.org/2000/svg" viewBox="0 0 484.45 137.23"><g id="Layer_1-2"><path d="M239.41,26.03c5.66,5.87,8.49,14.3,8.49,25.29v53.29h-16v-52.68c0-6.81-1.78-11.96-5.35-15.45-3.57-3.49-8.23-5.23-13.97-5.23-6.4,0-11.51,1.81-15.32,5.42-3.82,3.61-5.72,9.15-5.72,16.62v51.32h-16v-52.68c0-6.89-1.66-12.06-4.98-15.51-3.32-3.45-7.86-5.17-13.6-5.17-6.48,0-11.67,1.83-15.57,5.48-3.9,3.65-5.85,9.17-5.85,16.55v51.32h-16V18.46h15.51v11.32c2.62-4.02,6.19-7.12,10.71-9.29,4.51-2.17,9.72-3.26,15.63-3.26s11.36,1.15,15.88,3.45c4.51,2.3,7.92,5.54,10.22,9.72,2.87-4.18,6.79-7.42,11.75-9.72,4.96-2.3,10.48-3.45,16.55-3.45,10.09,0,17.97,2.93,23.63,8.8Z"/><path d="M332.45,38.89v55.75c0,23.14-11.37,34.71-34.09,34.71-5.99,0-11.71-.8-17.17-2.4-5.46-1.6-9.95-3.92-13.48-6.95l6.89-11.57c2.79,2.38,6.19,4.27,10.22,5.66,4.02,1.39,8.25,2.09,12.68,2.09,6.73,0,11.67-1.62,14.83-4.86,3.16-3.24,4.74-8.23,4.74-14.95v-3.08c-2.46,2.71-5.46,4.78-8.98,6.22-3.53,1.44-7.34,2.15-11.45,2.15-8.78,0-15.69-2.42-20.74-7.26-5.05-4.84-7.57-12.1-7.57-21.78v-33.72h15.38v31.75c0,5.83,1.33,10.2,4,13.11,2.67,2.91,6.46,4.37,11.38,4.37,5.5,0,9.87-1.68,13.11-5.05,3.24-3.36,4.86-8.25,4.86-14.65v-29.54h15.38Z"/><path d="M352.2,114.95c-4.55-2.13-8.31-5.21-11.26-9.23l8.86-10.95c4.68,6.57,10.3,9.85,16.86,9.85,9.11,0,13.66-5.29,13.66-15.88V31.88h-30.77v-13.42h46.65v69.42c0,10.09-2.46,17.66-7.38,22.71-4.92,5.05-12.14,7.57-21.66,7.57-5.42,0-10.4-1.07-14.95-3.2Z" style="fill:#9e005d;"/><path d="M426.05,103.01c-6.2-1.89-11.1-4.39-14.71-7.51l5.54-12.43c3.53,2.79,7.86,5.07,12.99,6.83,5.13,1.77,10.28,2.65,15.45,2.65,6.4,0,11.18-1.02,14.34-3.08,3.16-2.05,4.74-4.76,4.74-8.12,0-2.46-.88-4.49-2.65-6.09-1.77-1.6-4-2.85-6.71-3.75-2.71-.9-6.4-1.93-11.08-3.08-6.57-1.56-11.88-3.12-15.94-4.68-4.06-1.56-7.55-4-10.46-7.32-2.91-3.32-4.37-7.82-4.37-13.48,0-4.76,1.29-9.09,3.88-12.98,2.58-3.9,6.48-6.99,11.69-9.29,5.21-2.3,11.59-3.45,19.14-3.45,5.25,0,10.42.66,15.51,1.97,5.09,1.31,9.48,3.2,13.17,5.66l-5.05,12.43c-3.78-2.22-7.71-3.9-11.82-5.05-4.1-1.15-8.08-1.72-11.94-1.72-6.32,0-11.02,1.07-14.09,3.2-3.08,2.13-4.62,4.97-4.62,8.49,0,2.46.88,4.47,2.65,6.03,1.76,1.56,4,2.79,6.71,3.69,2.71.9,6.4,1.93,11.08,3.08,6.4,1.48,11.65,3.02,15.75,4.62,4.1,1.6,7.61,4.04,10.52,7.32,2.91,3.28,4.37,7.71,4.37,13.29,0,4.76-1.29,9.07-3.88,12.92-2.58,3.86-6.5,6.93-11.75,9.23-5.25,2.3-11.65,3.45-19.2,3.45-6.65,0-13.07-.94-19.26-2.83Z" style="fill:#9e005d;"/><path d="M87,33.12v55.44c0,8.71-7.07,15.78-15.78,15.78H15.78c-8.71,0-15.78-7.07-15.78-15.78v-55.44c0-8.71,7.07-15.78,15.78-15.78h55.44c1.44,0,2.84.19,4.16.56,4.36,1.19,7.96,4.2,9.95,8.16,1.07,2.12,1.67,4.52,1.67,7.06Z" style="fill:#9e005d;"/><line x1="38.52" y1="55.96" x2="54.5" y2="71.94" style="fill:#517dea;"/><path d="M87,32.77v21.38l-24.62,24.62c-2.08,2.08-4.81,3.12-7.53,3.12s-5.45-1.04-7.54-3.12c-1.32-1.33-2.23-2.92-2.71-4.61-1.03-3.6-.12-7.63,2.71-10.46l37.64-37.64c.12-.12.25-.24.37-.35,1.07,2.12,1.67,4.52,1.67,7.06Z" style="fill:#fff; opacity:.5;"/><path d="M44.39,74.51c-2.73,0-5.45-1.04-7.53-3.12l-15.98-15.98c-4.16-4.16-4.16-10.91,0-15.07,4.16-4.16,10.91-4.16,15.07,0l15.98,15.98c4.16,4.16,4.16,10.91,0,15.07-2.08,2.08-4.81,3.12-7.53,3.12Z" style="fill:#fff;"/><path d="M87,33.12v3.19l-35.08,35.08c-2.02,2.02-4.66,3.06-7.31,3.12-.07,0-.15,0-.22,0-2.73,0-5.45-1.04-7.53-3.12-4.16-4.16-4.16-10.91,0-15.06l37.64-37.64c.28-.28.58-.55.88-.79,4.36,1.19,7.96,4.2,9.95,8.16,1.07,2.12,1.67,4.52,1.67,7.06Z" style="fill:#fff;"/></g></svg>